# xmcd CD database file
#
# Track frame offsets:
#	150
#	23772
#	39569
#	54051
#	67614
#	80760
#	99571
#	111667
#	125531
#	139625
#	152709
#	164093
#	174719
#	186958
#	201577
#	216223
#	227102
#	238637
#	254738
#	265929
#
# Disc length: 3749 seconds
#
# Revision: 0
# Processed by: cddbd v1.5.2PL0 Copyright (c) Steve Scherf et al.
# Submitted via: CDex 1.70beta2
#
DISCID=280ea314
DTITLE=Dolly Parton - The Very Best Of
DYEAR=2007
DGENRE=Country
TTITLE0=You Are
TTITLE1=Heartbreaker
TTITLE2=We Used To
TTITLE3=9 To 5
TTITLE4=I Will Always Love You
TTITLE5=Dolly Parton and Kenny Rogers - Islands In The Stream
TTITLE6=Jolene
TTITLE7=Coat Of Many Colors
TTITLE8=My Tennessee Mountain Home
TTITLE9=Here You Come Again
TTITLE10=Baby I'm Burnin'
TTITLE11=Love Is Like A Butterfly
TTITLE12=The Bargain Store
TTITLE13=Potential New Boyfriend
TTITLE14=Dolly Parton and Willie Nelson - Everything's Beautiful (In It's Own Way)
TTITLE15=Dolly Parton, Tammy Wynette and Loretta Lynn - Silver Threads And Golden Needles
TTITLE16=Why'd You Come In Here Lookin' Like That
TTITLE17=Dolly Parton, Billy Ray Cyrus, Tanya Tucker, Mary Chapin Carpenter, Kathy Mattea and Pam Tillis - Romeo
TTITLE18=Dumb Blonde
TTITLE19=Old Flames Can't Hold A Candle To You
EXTD=YEAR: 2007
EXTT0=
EXTT1=
EXTT2=
EXTT3=
EXTT4=
EXTT5=
EXTT6=
EXTT7=
EXTT8=
EXTT9=
EXTT10=
EXTT11=
EXTT12=
EXTT13=
EXTT14=
EXTT15=
EXTT16=
EXTT17=
EXTT18=
EXTT19=
PLAYORDER=
